<svg id="moving" data-name="teist" style="fill:#fff" xmlns="http://www.w3.org/2000/svg" viewBox="0 0 1200 600">

	<style>
		#moving{
		transform-origin: 50% 50%;
		animation: cycle 120s linear infinite;
		}

		@keyframes cycle {
		0% {
		transform: rotate(0);
		}
		20% {
		transform: rotate(72deg);
		}
		40% {
		transform: rotate(144deg);
		}
		60% {
		transform: rotate(216deg);
		}
		80% {
		transform: rotate(288deg);
		}
		100% {
		transform: rotate(360deg);
		}
		}
	</style>

	<g id="two-system" data-name="two-system">
		<style>
		#two-system{
		transform-origin: 50% 50%;
		transform-box: fill-box;
		animation: cycle 50s linear infinite;
		}

		#saturn-s{
		transform-origin: 50% 50%;
		transform-box: fill-box;
		animation: cycle 10s linear infinite;
		}

		#saturn-l{
		transform-origin: 50% 50%;
		transform-box: fill-box;
		animation: cycle 20s linear infinite;
		}

		#saturn-m{
		transform-origin: 50% 50%;
		transform-box: fill-box;
		animation: cycle 30s linear infinite;
		}

		@keyframes cycle {
		0% {
		transform: rotate(0);
		}
		20% {
		transform: rotate(72deg);
		}
		40% {
		transform: rotate(144deg);
		}
		60% {
		transform: rotate(216deg);
		}
		80% {
		transform: rotate(288deg);
		}
		100% {
		transform: rotate(360deg);
		}
		}
		</style>

		<circle id="juno" data-name="juno" cx="788.26" cy="424.49" r="5.05"/>
<style>
			#juno-ring{
			transform-origin: 50% 50%;
			transform-box: fill-box;
			animation: cycle 10s linear infinite;
			}

			@keyframes cycle {
			0% {
			transform: rotate(0);
			}
			20% {
			transform: rotate(72deg);
			}
			40% {
			transform: rotate(144deg);
			}
			60% {
			transform: rotate(216deg);
			}
			80% {
			transform: rotate(288deg);
			}
			100% {
			transform: rotate(360deg);
			}
			}
			</style>
		<g id="juno-ring" data-name="juno-ring">
			
		<path d="M793.79,415a11,11,0,0,0-15.07,4,11,11,0,1,0,15.07-4Zm3.69,14.87a10.66,10.66,0,0,1-14.55,3.88,10.65,10.65,0,0,1-3.88-14.55,10.65,10.65,0,0,1,18.43,10.67Z"/><path d="M778.14,417.58a.19.19,0,0,0,.18-.09.21.21,0,0,0,0-.3.22.22,0,0,0-.31.05.22.22,0,0,0,0,.3A.21.21,0,0,0,778.14,417.58Z"/><polygon points="776.24 422.65 776.24 422.64 776.24 422.64 776.24 422.65"/><path d="M776.06,422.4a.21.21,0,0,0-.24.18h0a.22.22,0,0,0,.18.24h0a.2.2,0,0,0,.2-.19A.21.21,0,0,0,776.06,422.4Z"/><path d="M793.38,413.45a.22.22,0,0,0,.2-.13.21.21,0,0,0-.1-.28h0a.21.21,0,0,0-.29.11.23.23,0,0,0,.1.29Z"/><path d="M797.86,416.9a.19.19,0,0,0,.14,0,.21.21,0,0,0,0-.3.23.23,0,0,0-.31,0,.24.24,0,0,0,0,.31A.25.25,0,0,0,797.86,416.9Z"/><path d="M776.42,428.05a.21.21,0,0,0-.14.27.22.22,0,0,0,.21.15h.06a.23.23,0,0,0,.14-.27A.21.21,0,0,0,776.42,428.05Z"/><path d="M787.84,412.34h0a.22.22,0,0,0,0-.43.2.2,0,0,0-.21.22A.21.21,0,0,0,787.84,412.34Z"/><path d="M782.37,413.82a.15.15,0,0,0,.1,0,.21.21,0,0,0,.1-.29.22.22,0,0,0-.3-.08.23.23,0,0,0-.09.29A.21.21,0,0,0,782.37,413.82Z"/><path d="M800.33,427.22a.22.22,0,0,0-.11.43h0a.22.22,0,0,0,.06-.43Z"/><path d="M779.24,433a.23.23,0,0,0,0,.31.22.22,0,0,0,.16.06.17.17,0,0,0,.15-.06.21.21,0,0,0,0-.3A.22.22,0,0,0,779.24,433Z"/><path d="M800.28,421.56a.22.22,0,0,0-.16.27.22.22,0,0,0,.21.16h0a.22.22,0,0,0,.17-.26A.23.23,0,0,0,800.28,421.56Z"/><path d="M798.78,430.58a.21.21,0,0,0,.08.29.2.2,0,0,0,.11,0,.24.24,0,0,0,.19-.1.26.26,0,0,0-.08-.31A.24.24,0,0,0,798.78,430.58Z"/><path d="M795,434.62a.23.23,0,0,0-.06.31.24.24,0,0,0,.18.09.17.17,0,0,0,.12,0,.24.24,0,0,0,.07-.3A.23.23,0,0,0,795,434.62Z"/><path d="M784.23,436a.2.2,0,0,0-.27.13.21.21,0,0,0,.13.28h.06a.22.22,0,0,0,.21-.14A.21.21,0,0,0,784.23,436Z"/><path d="M789.76,436.55a.2.2,0,0,0-.19.24.21.21,0,0,0,.21.19h0a.23.23,0,0,0,.2-.24A.21.21,0,0,0,789.76,436.55Z"/><path d="M795.4,412.16a14.24,14.24,0,1,0-7.16,26.58,14.56,14.56,0,0,0,3.69-.49,14.24,14.24,0,0,0,3.47-26.09Zm4.76,19.22a13.75,13.75,0,1,1-15.44-20.18,14.06,14.06,0,0,1,3.57-.47,13.77,13.77,0,0,1,11.87,20.65Z"/>
		</g>

		<path id="saturn-l" data-name="saturn-l" d="M814,392.17h-.42l0-.94c.31,0,.63,0,.94,0l0,.94Zm-3.42-.49-1-.33.34-.87c.29.11.59.21.89.3Zm7,0-.28-.9c.3-.09.6-.2.89-.31l.35.87C818.23,391.42,817.91,391.54,817.59,391.64ZM807,389.91a9.5,9.5,0,0,1-.8-.62l.61-.72c.23.2.48.39.73.58Zm14.24-.08-.55-.76c.25-.18.49-.37.73-.58l.61.71C821.74,389.42,821.47,389.63,821.2,389.83Zm-17.1-2.77c-.19-.28-.38-.56-.55-.85l.81-.48c.16.27.33.53.51.79Zm19.92-.12-.77-.53c.18-.26.35-.52.5-.79l.82.47C824.4,386.38,824.21,386.67,824,386.94Zm1.58-3.15-.89-.3a9.21,9.21,0,0,0,.25-.9l.92.22C825.8,383.14,825.71,383.46,825.6,383.79Zm-23.26-.36c-.1-.33-.18-.65-.25-1l.92-.2c.07.31.14.61.23.91Zm22.93-3.62c0-.31,0-.63-.06-.94l.94-.09c0,.34.05.67.06,1Zm-22.48-.35-.94,0c0-.34,0-.67.09-1l.93.12C802.83,378.84,802.81,379.15,802.79,379.46Zm21.8-3.32c-.11-.29-.23-.58-.36-.86l.86-.39c.14.3.27.62.38.93Zm-21-.31-.87-.35c.12-.32.26-.62.41-.93l.84.42A9.37,9.37,0,0,0,803.58,375.83Zm19.18-2.93c-.2-.24-.41-.47-.62-.7l.67-.65c.24.24.46.5.68.76Zm-17.25-.26-.71-.61q.33-.39.69-.75l.66.68C805.93,372.17,805.72,372.4,805.51,372.64Zm14.45-2.2-.3-.18-.52-.28.43-.84.56.3.33.2Zm-11.58-.18-.47-.81a9.59,9.59,0,0,1,.9-.47l.4.85A9.33,9.33,0,0,0,808.38,370.26Zm8.13-1.24a9.32,9.32,0,0,0-.92-.17l.13-.93c.34.05.67.11,1,.18Zm-4.64-.07-.18-.92a8.62,8.62,0,0,1,1-.15l.1.93C812.48,368.85,812.18,368.89,811.87,369Z"/>
		<path id="saturn-m" data-name="saturn-m" d="M813.2,389.75c-.3,0-.61-.07-.91-.12l.15-.84a7.53,7.53,0,0,0,.83.11Zm2.76-.16-.17-.83.81-.21.25.82C816.56,389.45,816.26,389.53,816,389.59Zm-6.29-.83a5.86,5.86,0,0,1-.55-.3l-.26-.15.45-.72.23.14.51.27Zm9.68-.55-.46-.72a7.9,7.9,0,0,0,.69-.49l.52.67Q819.74,388,819.35,388.21Zm-12.61-1.67c-.2-.23-.4-.46-.58-.71l.68-.51c.17.23.35.44.54.65Zm15.26-.87-.69-.49c.16-.23.31-.47.46-.71l.73.42A7.94,7.94,0,0,1,822,385.67Zm1.18-2.2-.79-.3c.1-.27.18-.53.26-.8l.82.23C823.39,382.89,823.29,383.18,823.18,383.47Zm-18.34-.07c-.1-.28-.2-.58-.28-.87l.83-.22a8.18,8.18,0,0,0,.25.8ZM823,379.87a7.89,7.89,0,0,0-.05-.84l.84-.09a7,7,0,0,1,.06.92Zm-17.89-.07h-.85a7,7,0,0,1,.06-.92l.85.09A8.1,8.1,0,0,0,805.08,379.8Zm17.22-3.21c-.11-.26-.23-.52-.36-.77l.76-.39c.14.27.27.55.39.83Zm-16.53-.06-.78-.33a9,9,0,0,1,.4-.83l.75.4A7.6,7.6,0,0,0,805.77,376.53Zm14.7-2.75c-.2-.2-.4-.39-.62-.58l.56-.64c.23.2.46.41.67.63Zm-12.84,0-.61-.59c.21-.22.44-.43.67-.63l.55.65A8.22,8.22,0,0,0,807.63,373.73Zm10.1-1.88a7.52,7.52,0,0,0-.78-.32l.28-.8a8.86,8.86,0,0,1,.85.34Zm-7.36,0L810,371c.28-.12.57-.23.86-.33l.27.8C810.89,371.6,810.63,371.71,810.37,371.82Zm4.11-.77h-.84l0-.85a7.06,7.06,0,0,1,.92,0Z"/>
		<path id="saturn-s" data-name="saturn-s" d="M814.6,387.36l-.05-.72c.23,0,.47-.06.71-.1l.13.72A6.82,6.82,0,0,1,814.6,387.36Zm-2.36-.19a6.7,6.7,0,0,1-.76-.24l.25-.68c.22.08.45.15.68.21Zm5.39-.72-.36-.64a5.6,5.6,0,0,0,.61-.38l.42.6C818.08,386.18,817.86,386.32,817.63,386.45Zm-8.22-.68a7.57,7.57,0,0,1-.6-.53l.51-.52a6.17,6.17,0,0,0,.54.48ZM820,384.36l-.59-.43c.14-.19.27-.39.4-.6l.63.36A6.46,6.46,0,0,1,820,384.36Zm-12.58-1c-.11-.24-.22-.48-.31-.73l.68-.26a6.31,6.31,0,0,0,.29.66Zm13.52-.66-.69-.26a6.2,6.2,0,0,0,.23-.69l.7.19C821.1,382.16,821,382.41,820.93,382.66Zm-14.3-2.4c0-.09,0-.19,0-.28s0-.35,0-.52l.73.05c0,.16,0,.31,0,.47a2.09,2.09,0,0,0,0,.25Zm14-.68a5.71,5.71,0,0,0-.08-.71l.72-.12c0,.26.07.52.09.79Zm-12.82-2.15-.67-.28a7.79,7.79,0,0,1,.34-.72l.64.35C808.06,377,808,377.21,807.86,377.43Zm12-.59c-.12-.21-.24-.41-.37-.61l.6-.41a6.82,6.82,0,0,1,.41.68Zm-10.42-1.75-.5-.53a7.64,7.64,0,0,1,.62-.51l.43.58Zm8.57-.41a6.19,6.19,0,0,0-.59-.41l.38-.62c.22.14.44.29.65.45Zm-6.12-1-.22-.69a6.57,6.57,0,0,1,.76-.21l.16.71A5.56,5.56,0,0,0,811.94,373.65Zm3.54-.18a5.52,5.52,0,0,0-.71-.11l.09-.73c.26,0,.52.08.78.13Z"/><circle id="ced5fa88-c2e5-4217-88ff-8c8e5a0a8302" data-name="saturn" cx="814.02" cy="379.99" r="4.97"/>
		<circle cx="800.11" cy="403.31" r="44.18" style="fill:none;opacity:0"/>
	</g>

	<g id="orbit" data-name="orbit">
		<!-- <path id="orbit-ring" data-name="orbit-ring" d="M759.09,142.86a223.24,223.24,0,0,0-143-65.33,5.2,5.2,0,0,1,0,.69A224.33,224.33,0,0,1,824.29,302a215.88,215.88,0,0,1-8.47,61.15l.68.21A216.63,216.63,0,0,0,825,302,223.52,223.52,0,0,0,759.09,142.86Zm39.33,263.9c.2.11.41.23.6.36,2.21-4.15,2.83-5.32,4.54-9l-.64-.28C801.14,401.63,800.61,402.63,798.42,406.76ZM758.6,460.55a224.3,224.3,0,0,1-317.2,0,226,226,0,0,1-28.1-34.19c-.21.11-.41.24-.63.35a227,227,0,0,0,28.24,34.34,225,225,0,0,0,318.18,0,228.42,228.42,0,0,0,17.58-19.74l-.58-.41A224.4,224.4,0,0,1,758.6,460.55ZM584,78.22a5.2,5.2,0,0,1,0-.69A225,225,0,0,0,375,302a226.09,226.09,0,0,0,8.66,62.21l.66-.25a225.42,225.42,0,0,1-8.62-62A224.33,224.33,0,0,1,584,78.22ZM402.78,396.34a6.56,6.56,0,0,0-6.56-6.56,6.4,6.4,0,0,0-2.52.5c-.84-2-1.66-3.95-2.44-5.95l-.66.3c.8,2,1.61,4,2.46,6a6.56,6.56,0,0,0,3.16,12.31,6.3,6.3,0,0,0,2.35-.44q1.44,2.88,3,5.73c.22-.09.43-.2.64-.31q-1.51-2.82-3-5.71A6.52,6.52,0,0,0,402.78,396.34Zm-4.52,5.49a6,6,0,0,1-2,.36,5.85,5.85,0,0,1-2.87-10.94c.2-.11.42-.23.63-.32a6,6,0,0,1,2.24-.44,5.85,5.85,0,0,1,2.68,11.05A6.22,6.22,0,0,1,398.26,401.83Z" style="fill:none;stroke:#fff;stroke-miterlimit:10"/> -->
		<path id="dot-center" data-name="dot-center" d="M604.86,77.32c0,.14,0,.27,0,.4a4.86,4.86,0,0,1-9.69,0,2.73,2.73,0,0,1,0-.7,4.85,4.85,0,0,1,9.69,0A1.42,1.42,0,0,1,604.86,77.32Z"/>
	</g>

	<g id="dot-orbit" data-name="dot-orbit">
		<style>
			#dot-orbit{
			transform-origin: 50% 50%;
			transform-box: fill-box;
			animation:cycle 20s linear infinite;
			}

			@keyframes cycle {
			0% {
			transform: rotate(0);
			}
			20% {
			transform: rotate(72deg);
			}
			40% {
			transform: rotate(144deg);
			}
			60% {
			transform: rotate(216deg);
			}
			80% {
			transform: rotate(288deg);
			}
			100% {
			transform: rotate(360deg);
			}
			}
		</style>
		<path d="M591.28,70.74a.94.94,0,0,1-.07-1.32.93.93,0,1,1,.07,1.32Z"/><path d="M598.37,66.51a.93.93,0,0,1,.88-1h0a1,1,0,0,1,1,.88v0a1,1,0,0,1-.88.94h-.06A.93.93,0,0,1,598.37,66.51Z"/><path d="M606.49,69.78a.93.93,0,0,1-.09-1.32,1,1,0,0,1,1.32-.09.94.94,0,0,1-1.23,1.41Z"/><path d="M593.19,84.57a1,1,0,0,1,0,1.32,1,1,0,0,1-1.33,0,.92.92,0,0,1,0-1.32A.94.94,0,0,1,593.19,84.57Z"/><path d="M601.17,88.18a1,1,0,0,1-.92.95,1,1,0,0,1-1-.92.94.94,0,0,1,.92-.95A1,1,0,0,1,601.17,88.18Z"/><path d="M608.71,84.93a1,1,0,0,1-1.59.67.94.94,0,0,1,1.31-1.34A.91.91,0,0,1,608.71,84.93Z"/><path d="M599.37,67.39a1,1,0,0,0,.88-.94v0a1,1,0,0,0-1-.88h0a.94.94,0,0,0,.06,1.87Z"/><path d="M592.6,70.66a.93.93,0,1,0-1.32.08A1,1,0,0,0,592.6,70.66Z"/><path d="M591.87,84.61a.92.92,0,0,0,0,1.32,1,1,0,0,0,1.33,0,1,1,0,0,0,0-1.32A.94.94,0,0,0,591.87,84.61Z"/><path d="M600.23,87.26h0a.94.94,0,0,0-.92.95,1,1,0,0,0,1,.92,1,1,0,0,0,.92-.95A.93.93,0,0,0,600.23,87.26Z"/><path d="M607.11,84.27a.94.94,0,0,0,0,1.33c.87.83,2.19-.5,1.31-1.34A.93.93,0,0,0,607.11,84.27Z"/><path d="M607.81,69.69a1,1,0,0,0-.09-1.32,1,1,0,0,0-1.32.09.93.93,0,0,0,.09,1.32A1,1,0,0,0,607.81,69.69Z"/><path d="M611.48,76.15a1,1,0,0,0-1.33.09.89.89,0,0,0-.16.93.84.84,0,0,0,.26.39.94.94,0,0,0,1.32-.09.67.67,0,0,0,.13-.21.81.81,0,0,0,.09-.4A.92.92,0,0,0,611.48,76.15Z"/><path d="M589.12,76.84h0a.93.93,0,0,0-.74.42.89.89,0,0,0-.16.55.68.68,0,0,0,0,.15.92.92,0,0,0,.91.75h0a.93.93,0,0,0,.89-.83.37.37,0,0,0,0-.11v0a.9.9,0,0,0-.21-.56A.93.93,0,0,0,589.12,76.84Z"/>
	</g>

	<g id="geometria" data-name="geometria">
		<style>
				#geometria{
				transform-origin: 50% 50%;
				transform-box: fill-box;
				animation: cycle 60s linear infinite;
				}

				@keyframes cycle {
				0% {
				transform: rotate(0);
				}
				20% {
				transform: rotate(72deg);
				}
				40% {
				transform: rotate(144deg);
				}
				60% {
				transform: rotate(216deg);
				}
				80% {
				transform: rotate(288deg);
				}
				100% {
				transform: rotate(360deg);
				}
				}
		</style>
		<path d="M413.87,390.69l9.83,6.77a2.86,2.86,0,0,0-.28,1,2.81,2.81,0,0,0,.12,1l-10.78,5.13-.08,1.08,11.26-5.36a2.93,2.93,0,1,0,.29-3.68L414,389.61Zm12.62,6.13a1.89,1.89,0,1,1-.3,3.77,1.88,1.88,0,0,1-1.31-.68,1.81,1.81,0,0,1-.39-.84,1.77,1.77,0,0,1,0-.52,2,2,0,0,1,.12-.5,1.88,1.88,0,0,1,.52-.77A1.93,1.93,0,0,1,426.49,396.82Zm-44.36,24.56a2.64,2.64,0,0,0-.11-1.05l13.66-6.51-.89-.61-13.17,6.27a2.93,2.93,0,0,0-1.71-1.17l1.15-14.55-.89-.6L379,418.23a2.92,2.92,0,1,0,3.16,3.15Zm-4.81-.38a1.89,1.89,0,0,1,1.57-1.72,2.43,2.43,0,0,1,.47,0,1.71,1.71,0,0,1,.46.1,1.84,1.84,0,0,1,1.25,1.42,1.77,1.77,0,0,1,0,.52,1.9,1.9,0,0,1-3.79-.3Zm35.45-31.86,0,.43-13.82-9.5.39-.19Zm-30.75-1-1.12,14.07-.35-.25,1.08-13.63Zm14.3,24.68,15.15-7.21,0,.43-14.75,7ZM383.57,372a3,3,0,0,0,1.88-.89l12,8.27,1-.47L386,370.37a2.72,2.72,0,0,0,.28-1,2.93,2.93,0,1,0-3.62,2.6L381.44,387l1-.46Zm-.85-1.12a1.89,1.89,0,1,1,2.51-1.65,1.65,1.65,0,0,1-.11.51,1.86,1.86,0,0,1-.54.78,1.83,1.83,0,0,1-.92.43,2.05,2.05,0,0,1-.94-.07Z"/><circle cx="396.27" cy="396.32" r="34.52" style="fill:none;opacity:0"/>
	</g>
</svg>