<?xml version="1.0" encoding="utf-8"?>
<!-- Generator: Adobe Illustrator 24.0.1, SVG Export Plug-In . SVG Version: 6.00 Build 0)  -->
<svg version="1.1" xmlns="http://www.w3.org/2000/svg" xmlns:xlink="http://www.w3.org/1999/xlink" x="0px" y="0px"
	 viewBox="0 0 595.3 595.3" enable-background="new 0 0 595.3 595.3" xml:space="preserve">
<pattern  x="692.8" y="-123.3" width="8.5" height="5.7" patternUnits="userSpaceOnUse" id="Новый_узор" viewBox="2.5 -7.8 8.5 5.7" overflow="visible">
	<g>
		<rect x="2.5" y="-7.8" fill="none" width="8.5" height="5.7"/>
		<polygon fill="#00FFA2" points="12.2,-4.3 9.7,-4.3 8.5,-2.2 9.7,0 12.2,0 13.5,-2.2 		"/>
		<polygon fill="#00FFA2" points="3.7,-4.3 1.2,-4.3 0,-2.2 1.2,0 3.7,0 5,-2.2 		"/>
		<polygon fill="#00FFA2" points="12.2,-10 9.7,-10 8.5,-7.8 9.7,-5.7 12.2,-5.7 13.5,-7.8 		"/>
		<polygon fill="#00FFA2" points="8,-7.1 5.5,-7.1 4.3,-5 5.5,-2.8 8,-2.8 9.2,-5 		"/>
		<polygon fill="#00FFA2" points="3.7,-10 1.2,-10 0,-7.8 1.2,-5.7 3.7,-5.7 5,-7.8 		"/>
	</g>
</pattern>
<g id="Слой_1">
	
		<pattern  id="SVGID_1_" xlink:href="#–Э–Њ–≤—Л–є_—Г–Ј–Њ—А" patternTransform="matrix(1 0 0 1 13.0629 22.6772)">
	</pattern>
	<path display="none" opacity="0.1" fill="url(#SVGID_1_)" d="M289.6,443.5c-76.5,0-138.8-62.3-138.8-138.8
		c0-76.5,62.3-138.8,138.8-138.8s138.8,62.3,138.8,138.8C428.5,381.3,366.2,443.5,289.6,443.5z M275.8,390.6
		c0.4,2.2,0.8,4.2,1.2,6.2c5.6,27.2,11.5,32.4,12.7,33.2c1.2-0.8,7-6,12.7-33.2c0.4-1.9,0.8-4,1.2-6.2c-4.6,0.3-9.3,0.4-13.8,0.4
		S280.4,390.8,275.8,390.6z M317.4,389.3c-2.6,15.6-5.8,27.9-9.6,36.8c14.9-6.7,28.3-21.5,38.2-42.4
		C336.8,386.2,327.3,388,317.4,389.3z M233.3,383.7c9.9,20.9,23.3,35.7,38.2,42.4c-3.8-8.9-7-21.2-9.6-36.8
		C252,388,242.4,386.2,233.3,383.7z M363,378.1c-3.3,8.5-7.1,16.4-11.4,23.5c-4.3,7.2-9,13.5-14.1,18.9
		c30.6-12.7,55.1-37.2,67.8-67.8c-5.4,5.1-11.7,9.8-18.9,14.1C379.4,371,371.5,374.8,363,378.1z M173.9,352.7
		c12.7,30.6,37.2,55.1,67.8,67.8c-5.1-5.4-9.8-11.7-14.1-18.9c-4.3-7.1-8.1-15-11.4-23.5c-8.5-3.3-16.4-7.1-23.5-11.4
		C185.6,362.4,179.3,357.7,173.9,352.7z M273.6,376.9c5.3,0.4,10.7,0.6,16,0.6s10.7-0.2,16-0.6c1.6-11.8,2.8-24.7,3.6-38.5
		c-6.5,0.2-13.1,0.3-19.6,0.3c-6.5,0-13.1-0.1-19.6-0.3C270.8,352.2,272,365.1,273.6,376.9z M226.8,367.6
		c10.4,3.5,21.5,6.2,33.1,7.8c-1.5-11.7-2.6-24.2-3.3-37.5c-13.3-0.7-25.9-1.8-37.5-3.3C220.6,346.1,223.3,357.2,226.8,367.6z
		 M322.8,337.8c-0.7,13.3-1.8,25.9-3.3,37.5c11.6-1.7,22.7-4.3,33.1-7.8c3.5-10.4,6.2-21.5,7.8-33.1
		C348.7,336,336.1,337.1,322.8,337.8z M168.3,322.8c6.7,14.9,21.5,28.3,42.4,38.2c-2.5-9.1-4.4-18.7-5.6-28.6
		C189.5,329.9,177.2,326.6,168.3,322.8z M374.2,332.5c-1.2,9.9-3.1,19.5-5.6,28.6c20.9-9.9,35.7-23.3,42.4-38.2
		C402.1,326.6,389.8,329.9,374.2,332.5z M269.5,324.9c6.7,0.2,13.5,0.3,20.2,0.3s13.5-0.1,20.2-0.3c0.2-6.7,0.3-13.5,0.3-20.2
		c0-6.7-0.1-13.5-0.3-20.2c-6.7-0.2-13.5-0.3-20.2-0.3c-6.7,0-13.5,0.1-20.2,0.3c-0.2,6.7-0.3,13.5-0.3,20.2
		C269.1,311.4,269.3,318.2,269.5,324.9z M323.3,285.1c0.2,6.5,0.3,13.1,0.3,19.6c0,6.5-0.1,13.1-0.3,19.6c13.8-0.8,26.7-2,38.5-3.6
		c0.4-5.3,0.6-10.7,0.6-16s-0.2-10.7-0.6-16C350,287.1,337.1,285.9,323.3,285.1z M217.5,320.7c11.8,1.6,24.7,2.8,38.5,3.6
		c-0.2-6.5-0.3-13.1-0.3-19.6c0-6.5,0.1-13.1,0.3-19.6c-13.7,0.8-26.7,2-38.5,3.6c-0.4,5.3-0.6,10.7-0.6,16S217.1,315.4,217.5,320.7
		z M164.4,304.7c0.8,1.2,6,7,33.2,12.7c1.9,0.4,4,0.8,6.2,1.2c-0.3-4.6-0.4-9.3-0.4-13.8s0.1-9.2,0.4-13.8c-2.2,0.4-4.2,0.8-6.2,1.2
		C170.4,297.7,165.2,303.5,164.4,304.7z M375.5,290.9c0.3,4.6,0.4,9.3,0.4,13.8s-0.1,9.2-0.4,13.8c2.2-0.4,4.2-0.8,6.2-1.2
		c27.2-5.6,32.4-11.5,33.2-12.7c-0.8-1.2-6-7-33.2-12.7C379.7,291.7,377.7,291.3,375.5,290.9z M210.7,248.4
		c-20.9,9.9-35.7,23.3-42.4,38.2c8.9-3.8,21.2-7,36.8-9.6C206.3,267.1,208.2,257.5,210.7,248.4z M374.2,277
		c15.6,2.6,27.9,5.8,36.8,9.6c-6.7-14.9-21.5-28.3-42.4-38.2C371.1,257.5,373,267.1,374.2,277z M226.8,241.9
		c-3.5,10.4-6.2,21.5-7.8,33.1c11.7-1.5,24.2-2.6,37.5-3.3c0.7-13.3,1.8-25.9,3.3-37.5C248.3,235.7,237.2,238.3,226.8,241.9z
		 M322.8,271.6c13.3,0.7,25.9,1.8,37.5,3.3c-1.7-11.6-4.3-22.7-7.8-33.1c-10.4-3.5-21.5-6.2-33.1-7.8
		C320.9,245.7,322,258.3,322.8,271.6z M273.6,232.5c-1.6,11.8-2.8,24.7-3.6,38.5c6.5-0.2,13.1-0.3,19.6-0.3c6.5,0,13.1,0.1,19.6,0.3
		c-0.8-13.8-2-26.7-3.6-38.5c-5.3-0.4-10.7-0.6-16-0.6C284.3,232,278.9,232.2,273.6,232.5z M363,231.3c8.5,3.3,16.4,7.1,23.5,11.4
		c7.2,4.3,13.5,9,18.9,14.1c-12.7-30.6-37.2-55.1-67.8-67.8c5.1,5.4,9.8,11.7,14.1,18.9C355.9,215,359.8,222.9,363,231.3z
		 M241.7,188.9c-30.6,12.7-55.1,37.2-67.8,67.8c5.4-5.1,11.7-9.8,18.9-14.1c7.1-4.3,15-8.1,23.5-11.4c3.3-8.5,7.1-16.4,11.4-23.5
		C232,200.7,236.7,194.4,241.7,188.9z M317.4,220.2c9.9,1.2,19.5,3.1,28.6,5.6c-9.9-20.9-23.3-35.7-38.2-42.4
		C311.6,192.3,314.8,204.6,317.4,220.2z M271.5,183.4c-14.9,6.7-28.3,21.5-38.2,42.4c9.1-2.5,18.7-4.4,28.6-5.6
		C264.5,204.6,267.7,192.3,271.5,183.4z M289.6,218.4c4.6,0,9.2,0.1,13.8,0.4c-0.4-2.2-0.8-4.2-1.2-6.2
		c-5.6-27.2-11.5-32.4-12.7-33.2c-1.2,0.8-7,6-12.7,33.2c-0.4,1.9-0.8,4-1.2,6.2C280.4,218.6,285.1,218.4,289.6,218.4z"/>
	<g opacity="0.2">
		<defs>
			<rect id="SVGID_5_" x="692.8" opacity="0.2" width="595.3" height="595.3"/>
		</defs>
		<clipPath id="SVGID_2_">
			<use xlink:href="#SVGID_5_"  overflow="visible"/>
		</clipPath>
		<g clip-path="url(#SVGID_2_)">
			<polygon fill="none" stroke="#FFFFFF" stroke-width="0.25" stroke-miterlimit="10" points="1304.6,577.3 909.3,718.3 
				589.7,446.4 665.3,33.7 1060.5,-107.2 1380.2,164.6 			"/>
			<polygon fill="none" stroke="#FFFFFF" stroke-width="0.25" stroke-miterlimit="10" points="1312.8,582.8 908.7,728.1 
				580.9,450.8 657.1,28.2 1061.2,-117.1 1389,160.2 			"/>
			<polygon fill="none" stroke="#FFFFFF" stroke-width="0.25" stroke-miterlimit="10" points="1318.2,588.3 906.7,735.5 
				573.4,452.8 651.6,22.7 1063.2,-124.5 1396.5,158.2 			"/>
			<polygon fill="none" stroke="#FFFFFF" stroke-width="0.25" stroke-miterlimit="10" points="1325.1,592.4 906.6,743.5 
				566.4,456.6 644.8,18.6 1063.3,-132.5 1403.4,154.4 			"/>
			<polygon fill="none" stroke="#FFFFFF" stroke-width="0.25" stroke-miterlimit="10" points="1329.2,597.8 903.9,749.8 
				559.7,457.5 640.7,13.2 1066,-138.8 1410.2,153.6 			"/>
			<polygon fill="none" stroke="#FFFFFF" stroke-width="0.25" stroke-miterlimit="10" points="1333.3,606 898.8,757.4 550.5,456.9 
				636.6,5 1071,-146.4 1419.4,154.1 			"/>
			<polygon fill="none" stroke="#FFFFFF" stroke-width="0.25" stroke-miterlimit="10" points="1334.6,610.1 896,760.7 546.3,456 
				635.2,0.9 1073.9,-149.6 1423.6,155 			"/>
			<polygon fill="none" stroke="#FFFFFF" stroke-width="0.25" stroke-miterlimit="10" points="1334.6,614.2 892.4,762.7 542.7,454 
				635.2,-3.2 1077.4,-151.7 1427.1,157 			"/>
			<polygon fill="none" stroke="#FFFFFF" stroke-width="0.25" stroke-miterlimit="10" points="1333.3,619.7 887,764.3 538.7,450.1 
				636.6,-8.7 1082.9,-153.2 1431.2,160.9 			"/>
			<polygon fill="none" stroke="#FFFFFF" stroke-width="0.25" stroke-miterlimit="10" points="1331.9,622.4 884,764.5 537,447.5 
				638,-11.4 1085.9,-153.4 1432.9,163.5 			"/>
			<polygon fill="none" stroke="#FFFFFF" stroke-width="0.25" stroke-miterlimit="10" points="1330.5,625.2 880.9,764.6 535.3,445 
				639.3,-14.1 1089,-153.6 1434.6,166 			"/>
			<polygon fill="none" stroke="#FFFFFF" stroke-width="0.25" stroke-miterlimit="10" points="1329.2,627.9 877.9,764.8 
				533.6,442.4 640.7,-16.9 1092,-153.8 1436.2,168.6 			"/>
			<polygon fill="none" stroke="#FFFFFF" stroke-width="0.25" stroke-miterlimit="10" points="1327.8,629.3 876,764.3 533.1,440.6 
				642.1,-18.2 1093.9,-153.3 1436.7,170.5 			"/>
			<polygon fill="none" stroke="#FFFFFF" stroke-width="0.25" stroke-miterlimit="10" points="1325.1,633.4 871.1,764 530.9,436.2 
				644.8,-22.3 1098.8,-153 1438.9,174.9 			"/>
			<polygon fill="none" stroke="#FFFFFF" stroke-width="0.25" stroke-miterlimit="10" points="1323.7,636.1 868,764.2 529.3,433.6 
				646.2,-25.1 1101.8,-153.2 1440.6,177.4 			"/>
			<polygon fill="none" stroke="#FFFFFF" stroke-width="0.25" stroke-miterlimit="10" points="1322.3,638.8 865,764.4 527.6,431.1 
				647.5,-27.8 1104.9,-153.3 1442.3,180 			"/>
			<polygon fill="none" stroke="#FFFFFF" stroke-width="0.25" stroke-miterlimit="10" points="1321,641.6 861.9,764.6 525.9,428.5 
				648.9,-30.5 1107.9,-153.5 1444,182.5 			"/>
			<polygon fill="none" stroke="#FFFFFF" stroke-width="0.25" stroke-miterlimit="10" points="1319.6,645.6 857.7,765.4 523,425.3 
				650.3,-34.6 1112.2,-154.4 1446.8,185.7 			"/>
			<polygon fill="none" stroke="#FFFFFF" stroke-width="0.25" stroke-miterlimit="10" points="1318.2,648.4 854.7,765.6 
				521.3,422.7 651.6,-37.4 1115.2,-154.6 1448.5,188.3 			"/>
			<polygon fill="none" stroke="#FFFFFF" stroke-width="0.25" stroke-miterlimit="10" points="1316.9,649.7 852.8,765.1 
				520.8,420.9 653,-38.7 1117.1,-154.1 1449,190.2 			"/>
			<polygon fill="none" stroke="#FFFFFF" stroke-width="0.25" stroke-miterlimit="10" points="1315.5,652.5 849.7,765.3 
				519.2,418.3 654.4,-41.5 1120.1,-154.3 1450.7,192.7 			"/>
			<polygon fill="none" stroke="#FFFFFF" stroke-width="0.25" stroke-miterlimit="10" points="1315.5,653.8 848.6,766 518,417.6 
				654.4,-42.8 1121.3,-154.9 1451.9,193.4 			"/>
			<polygon fill="none" stroke="#FFFFFF" stroke-width="0.25" stroke-miterlimit="10" points="1314.1,656.6 845.5,766.1 
				516.3,415.1 655.7,-45.6 1124.4,-155.1 1453.6,195.9 			"/>
			<polygon fill="none" stroke="#FFFFFF" stroke-width="0.25" stroke-miterlimit="10" points="1312.8,657.9 843.6,765.6 
				515.8,413.2 657.1,-46.9 1126.2,-154.6 1454.1,197.8 			"/>
			<polygon fill="none" stroke="#FFFFFF" stroke-width="0.25" stroke-miterlimit="10" points="1312.8,659.3 842.5,766.3 
				514.6,412.5 657.1,-48.3 1127.4,-155.3 1455.3,198.5 			"/>
			<polygon fill="none" stroke="#FFFFFF" stroke-width="0.25" stroke-miterlimit="10" points="1311.4,660.7 840.6,765.8 
				514.1,410.7 658.5,-49.7 1129.3,-154.8 1455.8,200.4 			"/>
			<polygon fill="none" stroke="#FFFFFF" stroke-width="0.25" stroke-miterlimit="10" points="1311.4,662 839.4,766.5 512.9,410 
				658.5,-51 1130.5,-155.5 1456.9,201 			"/>
			<polygon fill="none" stroke="#FFFFFF" stroke-width="0.25" stroke-miterlimit="10" points="1311.4,662 839.4,766.5 512.9,410 
				658.5,-51 1130.5,-155.5 1456.9,201 			"/>
			<polygon fill="none" stroke="#FFFFFF" stroke-width="0.25" stroke-miterlimit="10" points="1311.4,662 839.4,766.5 512.9,410 
				658.5,-51 1130.5,-155.5 1456.9,201 			"/>
			<polygon fill="none" stroke="#FFFFFF" stroke-width="0.25" stroke-miterlimit="10" points="1311.4,662 839.4,766.5 512.9,410 
				658.5,-51 1130.5,-155.5 1456.9,201 			"/>
			<polygon fill="none" stroke="#FFFFFF" stroke-width="0.25" stroke-miterlimit="10" points="1311.4,662 839.4,766.5 512.9,410 
				658.5,-51 1130.5,-155.5 1456.9,201 			"/>
			<polygon fill="none" stroke="#FFFFFF" stroke-width="0.25" stroke-miterlimit="10" points="1310,662 838.7,765.3 513.6,408.8 
				659.8,-51 1131.1,-154.3 1456.3,202.2 			"/>
		</g>
	</g>
	<g opacity="0.5">
		
			<image overflow="visible" width="1458" height="1457" xlink:href="EB44A18A3107985D.png"  transform="matrix(0.24 0 0 0.24 114.6038 129.8928)">
		</image>
	</g>
	<linearGradient id="SVGID_3_" gradientUnits="userSpaceOnUse" x1="150.8276" y1="304.7192" x2="428.46" y2="304.7192">
		<stop  offset="0" style="stop-color:#00FFA2"/>
		<stop  offset="0.5039" style="stop-color:#00CFFF"/>
		<stop  offset="1" style="stop-color:#DB1FFF"/>
	</linearGradient>
	<path fill="url(#SVGID_3_)" d="M289.6,443.5c-76.5,0-138.8-62.3-138.8-138.8c0-76.5,62.3-138.8,138.8-138.8s138.8,62.3,138.8,138.8
		C428.5,381.3,366.2,443.5,289.6,443.5z M275.8,390.6c0.4,2.2,0.8,4.2,1.2,6.2c5.6,27.2,11.5,32.4,12.7,33.2c1.2-0.8,7-6,12.7-33.2
		c0.4-1.9,0.8-4,1.2-6.2c-4.6,0.3-9.3,0.4-13.8,0.4S280.4,390.8,275.8,390.6z M317.4,389.3c-2.6,15.6-5.8,27.9-9.6,36.8
		c14.9-6.7,28.3-21.5,38.2-42.4C336.8,386.2,327.3,388,317.4,389.3z M233.3,383.7c9.9,20.9,23.3,35.7,38.2,42.4
		c-3.8-8.9-7-21.2-9.6-36.8C252,388,242.4,386.2,233.3,383.7z M363,378.1c-3.3,8.5-7.1,16.4-11.4,23.5c-4.3,7.2-9,13.5-14.1,18.9
		c30.6-12.7,55.1-37.2,67.8-67.8c-5.4,5.1-11.7,9.8-18.9,14.1C379.4,371,371.5,374.8,363,378.1z M173.9,352.7
		c12.7,30.6,37.2,55.1,67.8,67.8c-5.1-5.4-9.8-11.7-14.1-18.9c-4.3-7.1-8.1-15-11.4-23.5c-8.5-3.3-16.4-7.1-23.5-11.4
		C185.6,362.4,179.3,357.7,173.9,352.7z M273.6,376.9c5.3,0.4,10.7,0.6,16,0.6s10.7-0.2,16-0.6c1.6-11.8,2.8-24.7,3.6-38.5
		c-6.5,0.2-13.1,0.3-19.6,0.3c-6.5,0-13.1-0.1-19.6-0.3C270.8,352.2,272,365.1,273.6,376.9z M226.8,367.6
		c10.4,3.5,21.5,6.2,33.1,7.8c-1.5-11.7-2.6-24.2-3.3-37.5c-13.3-0.7-25.9-1.8-37.5-3.3C220.6,346.1,223.3,357.2,226.8,367.6z
		 M322.8,337.8c-0.7,13.3-1.8,25.9-3.3,37.5c11.6-1.7,22.7-4.3,33.1-7.8c3.5-10.4,6.2-21.5,7.8-33.1
		C348.7,336,336.1,337.1,322.8,337.8z M168.3,322.8c6.7,14.9,21.5,28.3,42.4,38.2c-2.5-9.1-4.4-18.7-5.6-28.6
		C189.5,329.9,177.2,326.6,168.3,322.8z M374.2,332.5c-1.2,9.9-3.1,19.5-5.6,28.6c20.9-9.9,35.7-23.3,42.4-38.2
		C402.1,326.6,389.8,329.9,374.2,332.5z M269.5,324.9c6.7,0.2,13.5,0.3,20.2,0.3s13.5-0.1,20.2-0.3c0.2-6.7,0.3-13.5,0.3-20.2
		c0-6.7-0.1-13.5-0.3-20.2c-6.7-0.2-13.5-0.3-20.2-0.3c-6.7,0-13.5,0.1-20.2,0.3c-0.2,6.7-0.3,13.5-0.3,20.2
		C269.1,311.4,269.3,318.2,269.5,324.9z M323.3,285.1c0.2,6.5,0.3,13.1,0.3,19.6c0,6.5-0.1,13.1-0.3,19.6c13.8-0.8,26.7-2,38.5-3.6
		c0.4-5.3,0.6-10.7,0.6-16s-0.2-10.7-0.6-16C350,287.1,337.1,285.9,323.3,285.1z M217.5,320.7c11.8,1.6,24.7,2.8,38.5,3.6
		c-0.2-6.5-0.3-13.1-0.3-19.6c0-6.5,0.1-13.1,0.3-19.6c-13.7,0.8-26.7,2-38.5,3.6c-0.4,5.3-0.6,10.7-0.6,16S217.1,315.4,217.5,320.7
		z M164.4,304.7c0.8,1.2,6,7,33.2,12.7c1.9,0.4,4,0.8,6.2,1.2c-0.3-4.6-0.4-9.3-0.4-13.8s0.1-9.2,0.4-13.8c-2.2,0.4-4.2,0.8-6.2,1.2
		C170.4,297.7,165.2,303.5,164.4,304.7z M375.5,290.9c0.3,4.6,0.4,9.3,0.4,13.8s-0.1,9.2-0.4,13.8c2.2-0.4,4.2-0.8,6.2-1.2
		c27.2-5.6,32.4-11.5,33.2-12.7c-0.8-1.2-6-7-33.2-12.7C379.7,291.7,377.7,291.3,375.5,290.9z M210.7,248.4
		c-20.9,9.9-35.7,23.3-42.4,38.2c8.9-3.8,21.2-7,36.8-9.6C206.3,267.1,208.2,257.5,210.7,248.4z M374.2,277
		c15.6,2.6,27.9,5.8,36.8,9.6c-6.7-14.9-21.5-28.3-42.4-38.2C371.1,257.5,373,267.1,374.2,277z M226.8,241.9
		c-3.5,10.4-6.2,21.5-7.8,33.1c11.7-1.5,24.2-2.6,37.5-3.3c0.7-13.3,1.8-25.9,3.3-37.5C248.3,235.7,237.2,238.3,226.8,241.9z
		 M322.8,271.6c13.3,0.7,25.9,1.8,37.5,3.3c-1.7-11.6-4.3-22.7-7.8-33.1c-10.4-3.5-21.5-6.2-33.1-7.8
		C320.9,245.7,322,258.3,322.8,271.6z M273.6,232.5c-1.6,11.8-2.8,24.7-3.6,38.5c6.5-0.2,13.1-0.3,19.6-0.3c6.5,0,13.1,0.1,19.6,0.3
		c-0.8-13.8-2-26.7-3.6-38.5c-5.3-0.4-10.7-0.6-16-0.6C284.3,232,278.9,232.2,273.6,232.5z M363,231.3c8.5,3.3,16.4,7.1,23.5,11.4
		c7.2,4.3,13.5,9,18.9,14.1c-12.7-30.6-37.2-55.1-67.8-67.8c5.1,5.4,9.8,11.7,14.1,18.9C355.9,215,359.8,222.9,363,231.3z
		 M241.7,188.9c-30.6,12.7-55.1,37.2-67.8,67.8c5.4-5.1,11.7-9.8,18.9-14.1c7.1-4.3,15-8.1,23.5-11.4c3.3-8.5,7.1-16.4,11.4-23.5
		C232,200.7,236.7,194.4,241.7,188.9z M317.4,220.2c9.9,1.2,19.5,3.1,28.6,5.6c-9.9-20.9-23.3-35.7-38.2-42.4
		C311.6,192.3,314.8,204.6,317.4,220.2z M271.5,183.4c-14.9,6.7-28.3,21.5-38.2,42.4c9.1-2.5,18.7-4.4,28.6-5.6
		C264.5,204.6,267.7,192.3,271.5,183.4z M289.6,218.4c4.6,0,9.2,0.1,13.8,0.4c-0.4-2.2-0.8-4.2-1.2-6.2
		c-5.6-27.2-11.5-32.4-12.7-33.2c-1.2,0.8-7,6-12.7,33.2c-0.4,1.9-0.8,4-1.2,6.2C280.4,218.6,285.1,218.4,289.6,218.4z"/>
</g>
<g id="logo">
</g>
</svg>
