<svg xmlns="http://www.w3.org/2000/svg" xmlns:xlink="http://www.w3.org/1999/xlink" viewBox="0 0 60 49.38"><defs><linearGradient id="b8525618-94ef-47e4-9382-9046659df24d" x1="-4.95" y1="71.09" x2="70.22" y2="10.38" gradientUnits="userSpaceOnUse"><stop offset="0" stop-color="#db1fff"/><stop offset="1" stop-color="#00ffa2"/></linearGradient><linearGradient id="b35b5dc3-3ed0-4196-b32d-8833c29495c8" x1="-21.99" y1="48.51" x2="53.17" y2="-12.2" xlink:href="#b8525618-94ef-47e4-9382-9046659df24d"/><linearGradient id="f01c80c9-038d-4585-9be2-cda46565f7e8" x1="-12.97" y1="59.28" x2="61.24" y2="-0.66" xlink:href="#b8525618-94ef-47e4-9382-9046659df24d"/></defs><title>Монтажная область 16</title><g id="b40d1049-07f9-4c07-b8d5-ad1f04299148" data-name="Слой 4"><path d="M10.13,37.43a1.91,1.91,0,0,1,1.36-.59h47a1,1,0,0,1,.68,1.72l-9.28,9.73a1.87,1.87,0,0,1-1.36.59h-47a1,1,0,0,1-.68-1.72Z" style="fill:url(#b8525618-94ef-47e4-9382-9046659df24d)"/><path d="M10.13,1.09A1.87,1.87,0,0,1,11.49.5h47a1,1,0,0,1,.68,1.72L49.87,12a1.91,1.91,0,0,1-1.36.59h-47a1,1,0,0,1-.68-1.72Z" style="fill:url(#b35b5dc3-3ed0-4196-b32d-8833c29495c8)"/><path d="M49.87,19.14a1.91,1.91,0,0,0-1.36-.59h-47a1,1,0,0,0-.68,1.72L10.13,30a1.87,1.87,0,0,0,1.36.59h47a1,1,0,0,0,.68-1.72Z" style="fill:url(#f01c80c9-038d-4585-9be2-cda46565f7e8)"/></g></svg>