<?xml version="1.0" standalone="no"?>
<!DOCTYPE svg PUBLIC "-//W3C//DTD SVG 20010904//EN"
 "http://www.w3.org/TR/2001/REC-SVG-20010904/DTD/svg10.dtd">
<svg version="1.0" xmlns="http://www.w3.org/2000/svg"
 width="600.000000pt" height="600.000000pt" viewBox="0 0 600.000000 600.000000"
 preserveAspectRatio="xMidYMid meet">
<metadata>
Created by potrace 1.14, written by Peter Selinger 2001-2017
</metadata>
<g transform="translate(0.000000,600.000000) scale(0.100000,-0.100000)"
fill="#000000" stroke="none">
<path d="M2827 5764 c-1 -1 -51 -4 -112 -8 -110 -6 -132 -9 -235 -26 -30 -5
-73 -12 -95 -16 -128 -18 -422 -107 -560 -169 -214 -95 -332 -159 -495 -270
-58 -39 -114 -78 -125 -87 -392 -321 -629 -606 -823 -994 -68 -136 -162 -375
-188 -479 -1 -5 -10 -37 -19 -70 -9 -33 -18 -69 -21 -80 -19 -94 -34 -178 -40
-220 -4 -27 -8 -58 -10 -67 -17 -95 -25 -464 -13 -573 4 -33 10 -87 14 -120 5
-55 26 -178 49 -290 34 -168 130 -435 227 -627 148 -296 316 -527 554 -762
270 -266 599 -479 958 -620 112 -44 322 -109 389 -121 17 -3 34 -7 37 -9 3 -2
24 -7 46 -10 22 -4 65 -11 95 -16 271 -47 689 -45 953 5 600 115 1099 377
1516 796 262 263 462 562 609 911 54 126 131 368 147 457 3 19 8 37 10 41 2 3
7 29 11 56 3 27 8 52 10 55 2 3 6 34 10 70 3 35 8 67 10 70 2 3 6 50 10 105
53 707 -136 1362 -559 1934 -87 117 -110 143 -272 306 -195 196 -380 337 -610
466 -325 181 -648 288 -1035 342 -93 13 -433 28 -443 20z m127 -317 c68 -89
175 -384 210 -582 3 -16 8 -41 11 -55 7 -29 25 -122 25 -125 0 -1 -17 0 -37 1
-55 4 -452 4 -490 0 -38 -4 -37 -8 -19 81 8 38 17 80 19 93 3 14 10 45 17 70
7 25 14 53 16 64 34 176 170 486 214 486 5 0 20 -15 34 -33z m-412 -59 c-22
-28 -112 -324 -136 -448 -2 -14 -14 -72 -26 -130 -11 -57 -21 -115 -22 -127
-2 -23 -9 -26 -98 -38 -25 -3 -79 -13 -120 -20 -41 -8 -86 -16 -100 -19 -14
-2 -55 -11 -91 -20 -37 -8 -78 -17 -90 -20 -13 -2 -36 -7 -51 -11 -16 -4 -28
-4 -28 -1 0 28 149 280 228 386 140 187 299 333 463 424 67 38 88 44 71 24z
m890 -64 c175 -112 337 -281 480 -504 68 -105 152 -260 145 -267 -3 -3 -54 7
-114 21 -93 22 -194 43 -293 60 -49 8 -145 20 -152 18 -8 -2 -14 16 -24 78 -4
25 -8 47 -9 50 -1 3 -5 25 -9 50 -26 147 -117 473 -153 543 l-14 28 35 -15
c20 -8 68 -36 108 -62z m-1538 -80 c-46 -49 -169 -218 -228 -313 -62 -100
-168 -310 -211 -416 -16 -38 -33 -75 -39 -82 -6 -6 -51 -28 -101 -48 -217 -88
-509 -261 -660 -388 -104 -88 -99 -85 -88 -62 6 11 30 61 53 110 231 484 664
924 1148 1164 160 80 172 83 126 35z m2177 -34 c489 -246 893 -654 1141 -1151
47 -95 60 -129 49 -129 -4 0 -16 10 -27 21 -42 47 -239 190 -364 263 -60 35
-283 146 -345 171 -105 42 -104 41 -160 172 -66 154 -149 310 -234 438 -65 99
-186 257 -203 263 -4 2 -8 8 -8 13 0 12 33 -2 151 -61z m-948 -803 c65 -3 119
-6 121 -8 2 -2 7 -33 10 -69 4 -36 9 -74 11 -85 2 -11 7 -51 10 -90 3 -38 7
-81 9 -95 2 -14 7 -63 11 -110 3 -47 8 -110 10 -140 3 -30 7 -85 9 -121 l5
-66 -400 0 -400 0 5 66 c3 36 8 104 11 151 3 47 8 103 10 125 8 81 16 161 20
200 2 22 9 83 16 137 11 85 14 97 33 100 12 2 95 5 186 7 91 1 166 4 168 6 2
1 11 1 20 -1 9 -2 70 -5 135 -7z m-818 -74 c-3 -21 -7 -58 -10 -83 -10 -88
-14 -126 -20 -190 -3 -36 -7 -85 -10 -110 -2 -25 -7 -88 -11 -140 -14 -221 -9
-204 -57 -206 -53 -2 -240 -15 -272 -19 -16 -2 -70 -6 -120 -10 -49 -4 -97 -9
-105 -10 -8 -1 -44 -6 -80 -9 -36 -4 -82 -9 -102 -12 -47 -6 -47 -15 -3 201
38 192 107 442 127 461 11 11 199 70 281 89 166 37 324 69 374 74 8 1 11 -11
8 -36z m1350 17 c33 -6 74 -13 90 -16 117 -20 434 -110 452 -127 21 -21 115
-370 137 -507 3 -19 8 -46 11 -60 3 -14 8 -42 10 -63 l5 -39 -47 6 c-27 4 -70
9 -98 11 -27 3 -61 7 -75 10 -14 2 -63 7 -110 10 -47 4 -96 8 -110 10 -26 4
-231 17 -287 19 -18 0 -33 3 -34 6 -3 17 -7 78 -13 170 -6 100 -21 278 -31
365 -11 97 -15 138 -21 180 l-6 45 34 -4 c18 -3 60 -10 93 -16z m-2361 -307
c-3 -16 -10 -44 -15 -63 -4 -19 -10 -46 -13 -60 -3 -14 -8 -36 -11 -50 -11
-47 -46 -245 -52 -290 -3 -25 -7 -52 -9 -60 -1 -8 -3 -18 -3 -21 -1 -3 -7 -6
-13 -6 -71 -1 -438 -89 -602 -143 -65 -22 -120 -40 -123 -40 -10 0 70 135 121
204 99 134 256 278 421 388 76 50 285 168 297 168 5 0 6 -12 2 -27z m3368 -33
c255 -140 434 -284 583 -469 51 -64 145 -214 145 -234 0 -4 -12 -1 -28 7 -26
14 -158 57 -272 89 -88 25 -286 68 -386 83 -54 8 -60 15 -68 84 -3 30 -8 69
-11 85 -24 136 -40 214 -61 301 -26 112 -27 114 -18 114 4 0 56 -27 116 -60z
m-1335 -674 c4 -4 7 -187 7 -407 0 -304 -3 -402 -12 -408 -7 -4 -191 -7 -409
-7 l-398 1 -5 36 c-5 29 -6 735 -1 776 0 7 21 13 49 15 96 6 762 1 769 -6z
m-1101 -407 l0 -398 -80 4 c-45 3 -108 7 -141 10 -33 3 -85 7 -115 10 -79 6
-158 14 -210 20 -147 16 -225 27 -228 30 -10 9 -14 108 -14 320 0 227 4 303
16 323 3 6 34 13 68 17 35 4 74 8 88 10 24 3 65 8 195 20 33 3 76 8 95 10 19
2 87 7 150 11 63 3 116 7 117 8 1 0 14 2 30 2 l29 1 0 -398z m1564 386 c113
-7 189 -13 250 -20 25 -2 72 -7 105 -11 33 -3 74 -8 90 -10 17 -2 57 -6 90
-10 33 -4 62 -8 64 -10 11 -10 17 -482 7 -589 -2 -22 -4 -45 -5 -52 -1 -7 -29
-15 -68 -19 -38 -4 -70 -8 -73 -9 -6 -1 -131 -15 -185 -20 -22 -2 -65 -6 -95
-9 -30 -3 -91 -8 -135 -11 -44 -3 -112 -8 -151 -11 l-71 -5 0 400 0 400 41 -4
c23 -2 84 -6 136 -10z m-2626 -127 c-6 -19 -7 -449 -1 -508 2 -23 -1 -25 -33
-23 -93 5 -461 105 -583 158 -89 39 -177 94 -177 111 0 66 418 221 728 270 20
3 39 8 41 10 2 2 11 4 18 4 10 0 12 -6 7 -22z m3591 7 c22 -4 103 -22 180 -41
250 -62 433 -132 507 -194 l33 -28 -24 -26 c-31 -33 -183 -107 -286 -139 -181
-57 -468 -123 -485 -112 -5 3 -7 15 -4 28 5 24 5 433 0 482 -4 38 1 47 22 41
10 -3 35 -8 57 -11z m-4230 -670 c65 -25 218 -72 260 -81 11 -2 67 -15 125
-28 104 -25 131 -30 223 -45 26 -5 50 -10 53 -13 6 -7 12 -37 19 -101 7 -61
72 -379 86 -425 6 -18 9 -36 6 -39 -16 -15 -321 165 -426 252 -193 160 -285
263 -382 427 -37 63 -44 78 -35 78 2 0 34 -11 71 -25z m4865 21 c0 -11 -74
-133 -117 -193 -65 -92 -219 -244 -328 -325 -127 -95 -388 -248 -401 -236 -2
3 6 52 20 109 23 98 39 174 51 244 15 92 29 191 27 198 -3 12 36 24 138 42 52
9 140 28 195 42 55 14 111 27 124 29 13 3 81 24 150 48 134 46 141 48 141 42z
m-3800 -241 c30 -3 71 -8 90 -10 63 -7 157 -16 211 -20 30 -2 88 -7 129 -10
41 -3 106 -8 144 -10 38 -2 70 -6 73 -8 5 -5 10 -61 18 -197 3 -58 8 -121 10
-140 2 -19 6 -66 10 -105 9 -111 23 -238 32 -283 l5 -33 -44 5 c-125 15 -380
74 -557 129 l-75 22 -23 75 c-48 156 -114 442 -128 558 -5 43 -5 44 22 38 16
-3 53 -8 83 -11z m2765 -23 c-12 -116 -82 -413 -136 -578 l-20 -61 -107 -31
c-187 -55 -385 -100 -520 -118 l-44 -6 6 49 c4 26 9 68 12 93 3 25 7 59 9 75
2 17 7 66 10 110 4 44 8 91 10 105 4 24 17 224 19 287 1 18 4 34 6 37 6 5 83
14 205 21 156 10 219 15 255 20 19 2 64 7 100 11 70 7 181 20 192 23 4 0 5
-16 3 -37z m-1041 -82 c-1 -46 -14 -237 -19 -286 -2 -22 -7 -74 -10 -117 -4
-43 -8 -88 -10 -100 -2 -12 -6 -49 -10 -82 -7 -67 -15 -122 -21 -146 -4 -13
-21 -17 -92 -19 -143 -5 -511 -2 -536 4 -24 6 -28 21 -41 156 -3 25 -7 63 -10
85 -3 22 -7 67 -10 100 -3 33 -7 80 -10 105 -9 100 -16 189 -20 260 l-4 75
397 0 397 0 -1 -35z m1953 -287 c-8 -16 -29 -59 -47 -98 -171 -365 -476 -723
-835 -980 -115 -82 -296 -186 -420 -240 l-60 -27 25 28 c14 16 27 31 30 34 3
3 28 34 55 70 28 36 52 67 55 70 9 8 125 190 149 233 47 84 112 218 155 317
38 89 50 108 78 122 18 9 41 17 51 18 9 0 17 4 17 8 0 5 6 9 13 9 7 0 81 34
164 75 165 82 397 231 508 327 39 33 71 60 73 61 1 0 -4 -12 -11 -27z m-4513
-128 c157 -115 402 -251 586 -324 l75 -29 43 -99 c128 -295 257 -509 425 -706
56 -66 62 -66 -96 10 -152 74 -350 202 -492 318 -90 73 -300 288 -377 385 -41
52 -106 142 -144 200 -65 100 -204 359 -204 382 0 6 24 -10 53 -34 28 -25 87
-71 131 -103z m1196 -514 c74 -16 155 -33 180 -37 25 -4 47 -8 50 -9 3 -1 32
-5 65 -9 103 -14 107 -15 111 -39 1 -7 7 -39 12 -72 6 -33 20 -103 32 -155 12
-52 24 -106 27 -120 11 -54 66 -238 89 -299 13 -35 23 -66 21 -67 -2 -2 -25 8
-53 23 -194 102 -375 277 -533 515 -69 102 -171 284 -171 303 0 3 8 4 18 1 9
-3 78 -19 152 -35z m2110 33 c0 -12 -78 -156 -132 -242 -159 -254 -342 -442
-551 -564 -38 -22 -70 -38 -73 -36 -2 2 14 57 36 122 47 138 94 324 124 490
25 133 19 126 113 140 89 12 125 19 243 42 69 14 145 31 170 39 50 15 70 18
70 9z m-1140 -137 c142 1 263 4 269 7 14 9 15 19 -13 -121 -64 -315 -147 -553
-224 -643 l-30 -35 -25 23 c-74 69 -168 333 -236 659 -24 118 -25 127 -10 117
7 -4 128 -7 269 -7z"/>
</g>
</svg>
